<?xml version="1.0"?>
<svg xmlns="http://www.w3.org/2000/svg" xmlns:xlink="http://www.w3.org/1999/xlink" xmlns:svgjs="http://svgjs.com/svgjs" version="1.1" width="512" height="512" x="0" y="0" viewBox="0 0 496.6 496.6" style="enable-background:new 0 0 512 512" xml:space="preserve" class=""><g>
<circle xmlns="http://www.w3.org/2000/svg" style="" cx="248.2" cy="248.3" r="248.2" fill="#d5e66d" data-original="#fdbf5e" class=""/>
<g xmlns="http://www.w3.org/2000/svg">
	<rect x="354.5" y="247.5" style="" width="15.5" height="14.7" fill="#193651" data-original="#193651"/>
	<rect x="399.5" y="247.5" style="" width="15.5" height="14.7" fill="#193651" data-original="#193651"/>
	<rect x="445.2" y="247.5" style="" width="15.5" height="14.7" fill="#193651" data-original="#193651"/>
	<rect x="134.2" y="173.8" style="" width="14.7" height="15.5" fill="#193651" data-original="#193651"/>
	<rect x="134.2" y="213.4" style="" width="14.7" height="15.5" fill="#193651" data-original="#193651"/>
	<rect x="134.2" y="252.2" style="" width="14.7" height="15.5" fill="#193651" data-original="#193651"/>
	<path style="" d="M463.9,413.5H92.3c-4.7,0-7.8-3.1-7.8-7.8V34.2c0-4.7,3.1-7.8,7.8-7.8s7.8,3.1,7.8,7.8V398h363.8   c4.7,0,7.8,3.1,7.8,7.8C471.7,410.5,467.7,413.5,463.9,413.5z" fill="#193651" data-original="#193651"/>
	<path style="" d="M429,411.2l-21.8-21.7c-3.1-3.1-3.1-7.8,0-10.9c3.1-3.1,7.8-3.1,10.9,0l21.7,21.7   c3.1,3.1,3.1,7.8,0,10.9C437.5,414.3,432.1,414.3,429,411.2z M385.5,367.8l-21.7-21.7c-3.1-3.1-3.1-7.8,0-10.9   c3.1-3.1,7.8-3.1,10.9,0l21.7,21.7c3.1,3.1,3.1,7.8,0,10.9C393.3,370.9,388.6,370.9,385.5,367.8z M341.3,323.5l-21.7-21.7   c-3.1-3.1-3.1-7.8,0-10.9c3.1-3.1,7.8-3.1,10.9,0l21.7,21.7c3.1,3.1,3.1,7.8,0,10.9C349,326.7,344.4,326.7,341.3,323.5z    M297.8,280.1l-21.7-21.7c-3.1-3.1-3.1-7.8,0-10.9c3.1-3.1,7.8-3.1,10.9,0l21.7,21.7c3.1,3.1,3.1,7.8,0,10.9   C305.6,282.4,301,282.4,297.8,280.1z M253.6,235.9l-21.7-21.7c-3.1-3.1-3.1-7.8,0-10.9s7.8-3.1,10.9,0l21.7,21.7   c3.1,3.1,3.1,7.8,0,10.9S256.7,239,253.6,235.9z M209.4,191.7L187.7,170c-3.1-3.1-3.1-7.8,0-10.9s7.8-3.1,10.9,0l21.7,21.7   c3.1,3.1,3.1,7.8,0,10.9C217.9,194.8,212.5,194.8,209.4,191.7z M166,148.2l-21.8-21.7c-3.1-3.1-3.1-7.8,0-10.9s7.8-3.1,10.9,0   l21.7,21.7c3.1,3.1,3.1,7.8,0,10.9S169.1,151.3,166,148.2z M121.8,104L100,82.3c-3.1-3.1-3.1-7.8,0-10.9s7.8-3.1,10.9,0l21.7,21.7   c3.1,3.1,3.1,7.8,0,10.9C130.3,107.1,124.9,107.1,121.8,104z" fill="#193651" data-original="#193651"/>
	<path style="" d="M146.6,413.5H92.3c-4.7,0-7.8-3.1-7.8-7.8v-54.3c0-4.7,3.1-7.8,7.8-7.8h54.3c4.7,0,7.8,3.1,7.8,7.8   v54.3C154.3,410.4,151.2,413.5,146.6,413.5z M100,398h38.8v-38.8H100V398z" fill="#193651" data-original="#193651"/>
	<path style="" d="M175.3,413.5c-2.3,0-3.9-0.8-5.4-2.3c-3.1-3.1-3.1-7.8,0-10.9c9.3-9.3,14.7-22.5,14.7-35.7   c0-14-5.4-26.4-14.7-35.7c-20.2-20.2-52-20.2-72.1,0c-3.1,3.1-7.8,3.1-10.9,0c-3.1-3.1-3.1-7.8,0-10.9c25.6-25.6,68.3-25.6,93.9,0   c25.6,25.6,25.6,68.3,0,93.9C179.2,412.8,176.8,413.5,175.3,413.5z" fill="#193651" data-original="#193651"/>
	<path style="" d="M18.6,249.9l-6.2,14H2.3l26.4-59.7h10.1l26.4,59.7H54.3l-6.2-13.2H18.6V249.9z M44.2,240.5   l-10.9-24.8l-10.9,24.8H44.2z" fill="#193651" data-original="#193651"/>
	<path style="" d="M248.2,496.5h-26.4v-59.7h23.3c3.9,0,7.8,0.4,10.1,1.1c3.1,0.9,5.8,2.3,6.8,3.7   c2.6,3.6,3.2,6.9,3.2,10.8c0,4.7-1.7,7.5-4.7,10.1c-0.8,0.7-1.7,1.2-2.3,1.6c-0.5,0.3-1.2,0.5-2.3,0.8c3.9,0.8,6.8,2.5,8.5,4.7   c2.1,2.5,3.1,5.4,3.1,9.3c0,5.4-0.9,8.8-3.4,12.1C260.9,495.2,256.7,496.5,248.2,496.5z M232.7,461.6h13.2c7,0,10.9-2.3,10.9-7.8   c0-3.1-0.8-4.7-2.3-6.2c-1.5-1.5-4.7-1.6-8.5-1.6h-13.2v15.6H232.7z M232.7,487.2h15.5c3.9,0,6.3-0.5,8.5-1.6   c2.5-1.2,3.1-3.1,3.1-7c0-5.4-3.9-7.8-12.4-7.8h-14.7L232.7,487.2L232.7,487.2z" fill="#193651" data-original="#193651"/>
	<path style="" d="M263.7,308.8l-34.1-38c-3.1-3.1-2.3-7.8,0.8-10.9c3.1-3.1,7.8-2.3,10.9,0.8l25.6,27.9l26.4-72.9   c0.8-3.1,3.9-5.4,7-5.4h188.5c4.7,0,7.8,3.1,7.8,7.8s-3.1,7.8-7.8,7.8H305.6l-28.7,79.9c-0.8,2.3-3.1,4.7-5.4,4.7   C268.4,311.9,265.3,311.1,263.7,308.8z" fill="#193651" data-original="#193651"/>
	<path style="" d="M217.2,109.4c-3.1-3.1-3.1-7.8,0-10.9l37.2-37.2c3.1-3.1,7.8-3.1,10.9,0c3.1,3.1,3.1,7.8,0,10.9   l-37.2,37.2C224.9,112.5,220.3,112.5,217.2,109.4z" fill="#193651" data-original="#193651"/>
	<path style="" d="M253.6,109.4l-36.4-37.2c-3.1-3.1-3.1-7.8,0-10.9s7.8-3.1,10.9,0l37.2,37.2c3.1,3.1,3.1,7.8,0,10.9   C262.2,112.5,256.7,112.5,253.6,109.4z" fill="#193651" data-original="#193651"/>
	<path style="" d="M376.2,176.2c-3.1-3.1-3.1-7.8,0-10.9l37.2-37.2c3.1-3.1,7.8-3.1,10.9,0c3.1,3.1,3.1,7.8,0,10.9   l-37.2,37.2C384,179.3,379.3,179.3,376.2,176.2z" fill="#193651" data-original="#193651"/>
	<path style="" d="M413.4,176.2l-37.2-37.3c-3.1-3.1-3.1-7.8,0-10.9c3.1-3.1,7.8-3.1,10.9,0l37.2,37.2   c3.1,3.1,3.1,7.8,0,10.9C421.2,179.3,415.8,179.3,413.4,176.2z" fill="#193651" data-original="#193651"/>
</g>
<g xmlns="http://www.w3.org/2000/svg">
</g>
<g xmlns="http://www.w3.org/2000/svg">
</g>
<g xmlns="http://www.w3.org/2000/svg">
</g>
<g xmlns="http://www.w3.org/2000/svg">
</g>
<g xmlns="http://www.w3.org/2000/svg">
</g>
<g xmlns="http://www.w3.org/2000/svg">
</g>
<g xmlns="http://www.w3.org/2000/svg">
</g>
<g xmlns="http://www.w3.org/2000/svg">
</g>
<g xmlns="http://www.w3.org/2000/svg">
</g>
<g xmlns="http://www.w3.org/2000/svg">
</g>
<g xmlns="http://www.w3.org/2000/svg">
</g>
<g xmlns="http://www.w3.org/2000/svg">
</g>
<g xmlns="http://www.w3.org/2000/svg">
</g>
<g xmlns="http://www.w3.org/2000/svg">
</g>
<g xmlns="http://www.w3.org/2000/svg">
</g>
</g></svg>
